<?xml version="1.0" encoding="UTF-8"?>
<svg version="1.1" xmlns="http://www.w3.org/2000/svg" width="512" height="512">
<path d="M0 0 C1.30880127 0.00966797 1.30880127 0.00966797 2.64404297 0.01953125 C14.94681268 0.36474465 24.43749704 4.94268535 33.25 13.5 C36.25 17.08810573 36.25 17.08810573 36.25 19.5 C37.20261719 19.00628906 38.15523438 18.51257813 39.13671875 18.00390625 C40.40348171 17.35644963 41.67041801 16.70933206 42.9375 16.0625 C43.87625977 15.57426758 43.87625977 15.57426758 44.83398438 15.07617188 C54.82476525 10.00231981 67.90290081 9.8100701 78.625 13 C90.8218736 17.79520921 99.80882349 26.58483107 105.25 38.5 C106.25 41.5 106.25 41.5 106.25 44.5 C107.10658203 44.26603516 107.10658203 44.26603516 107.98046875 44.02734375 C120.30971514 41.06754056 132.14896887 42.78828916 143.09765625 49.15625 C152.81128607 55.67654072 159.27762908 64.11207614 162.640625 75.3515625 C163.68263606 80.73528633 163.56673832 86.04506234 163.25 91.5 C164.4875 91.561875 165.725 91.62375 167 91.6875 C179.43318533 93.15137582 188.46262041 99.67089208 196.3984375 109.03515625 C197.97918417 111.13948357 199.22800424 113.08085745 200.375 115.4375 C200.68695313 116.06527344 200.99890625 116.69304687 201.3203125 117.33984375 C203.89441052 123.32083621 204.6032317 128.30611847 204.5625 134.75 C204.56056641 136.00937378 204.56056641 136.00937378 204.55859375 137.29418945 C204.46405501 143.3984378 203.69141284 148.84696669 201.25 154.5 C201.95125 154.90089844 202.6525 155.30179688 203.375 155.71484375 C214.64220299 162.46598033 222.11833643 170.55046279 225.79199219 183.39501953 C228.01762929 193.62393378 227.36365329 206.33284105 222.25 215.5 C220.79625676 217.68061486 219.2950703 219.73350375 217.6171875 221.74609375 C216.19220147 223.57414726 215.21911208 225.40025716 214.25 227.5 C214.69730469 227.92667969 215.14460938 228.35335937 215.60546875 228.79296875 C222.99904757 236.43878054 226.81994044 246.13699708 227.3125 256.7578125 C227.0140903 269.85053796 222.482705 280.94572666 213.484375 290.51953125 C209.77382043 293.8084319 205.63064321 296.21093439 201.25 298.5 C201.45496094 299.09425781 201.65992188 299.68851562 201.87109375 300.30078125 C206.08019831 313.25032304 206.43705068 325.31508623 200.5 337.8125 C194.25395258 349.31601179 185.9075576 355.91840297 173.3125 359.9375 C169.67571347 360.99362634 167.06986575 361.5 163.25 361.5 C163.29640625 362.29921875 163.3428125 363.0984375 163.390625 363.921875 C163.84676118 377.80144731 159.81549398 388.29336246 150.40625 398.5 C142.1248203 406.37414627 131.00814106 410.65849966 119.6171875 410.42578125 C110.27141277 409.84047092 110.27141277 409.84047092 106.25 408.5 C106.188125 409.304375 106.12625 410.10875 106.0625 410.9375 C103.69676502 421.31033799 96.20399306 430.28330017 87.3125 435.875 C79.86510651 440.24379687 72.45063849 442.04545246 63.875 441.9375 C63.04718018 441.93210205 62.21936035 441.9267041 61.36645508 441.92114258 C54.73408985 441.75697191 49.21464144 440.48232072 43.25 437.5 C42.59257812 437.19191406 41.93515625 436.88382812 41.2578125 436.56640625 C39.90360172 435.91426327 38.57224815 435.21472873 37.25 434.5 C36.68345703 435.24443359 36.68345703 435.24443359 36.10546875 436.00390625 C28.97846426 444.79999844 19.25909089 451.30818963 7.86376953 452.81567383 C5.40008994 452.97211773 2.96849274 453.01922877 0.5 453 C-0.37253418 452.99355469 -1.24506836 452.98710937 -2.14404297 452.98046875 C-14.44681268 452.63525535 -23.93749704 448.05731465 -32.75 439.5 C-35.75 435.91189427 -35.75 435.91189427 -35.75 433.5 C-36.53503906 433.90992188 -37.32007813 434.31984375 -38.12890625 434.7421875 C-39.17949219 435.28101563 -40.23007813 435.81984375 -41.3125 436.375 C-42.34503906 436.90867187 -43.37757813 437.44234375 -44.44140625 437.9921875 C-55.91630875 443.22159998 -68.92443162 443.06822478 -80.71875 438.87890625 C-91.74936166 433.86111512 -99.71805673 425.51902393 -104.75 414.5 C-105.75 411.5 -105.75 411.5 -105.75 408.5 C-106.61347046 408.73904053 -106.61347046 408.73904053 -107.49438477 408.98291016 C-118.847257 411.58550604 -131.65256707 410.16172569 -141.75 404.5 C-151.97755098 397.99418125 -158.5663514 389.26479054 -162.10546875 377.68359375 C-163.19753046 372.28947075 -163.06778114 366.97289749 -162.75 361.5 C-163.47703125 361.42523438 -164.2040625 361.35046875 -164.953125 361.2734375 C-178.26133314 359.53313336 -188.3617858 354.08228447 -196.75 343.5 C-203.99911626 332.23529444 -206.0672977 320.65836174 -203.75 307.5 C-202.65340931 304.03708202 -201.33530231 300.76646012 -199.75 297.5 C-200.47316406 297.40847656 -201.19632813 297.31695312 -201.94140625 297.22265625 C-209.93820494 295.16506549 -216.59881214 287.36643023 -220.75 280.5 C-226.8452143 269.56090679 -228.00713347 257.79938989 -225.06640625 245.68359375 C-222.69942535 238.28809344 -218.55644098 232.53138347 -213.75 226.5 C-214.12511719 226.03851563 -214.50023437 225.57703125 -214.88671875 225.1015625 C-223.86936152 213.65265257 -227.84526812 202.3978576 -226.3515625 187.7734375 C-224.02198787 175.09692101 -216.92662529 165.13246897 -206.75 157.5 C-204.7731369 156.31890806 -202.87467849 155.40298836 -200.75 154.5 C-200.95496094 153.91734375 -201.15992188 153.3346875 -201.37109375 152.734375 C-205.47894647 140.23392365 -206.1178836 127.78644594 -200.38671875 115.6015625 C-198.95116933 113.1310821 -197.42506623 110.8133907 -195.75 108.5 C-194.986875 107.4275 -194.22375 106.355 -193.4375 105.25 C-185.0528551 96.67036336 -174.61219934 92.26530318 -162.75 91.5 C-162.79640625 90.70078125 -162.8428125 89.9015625 -162.890625 89.078125 C-163.34676118 75.19855269 -159.31549398 64.70663754 -149.90625 54.5 C-141.43915217 46.44931681 -130.25110237 42.63850047 -118.6875 42.25 C-114.21256036 42.53412315 -110.07997589 43.37741366 -105.75 44.5 C-105.63914062 43.62214844 -105.52828125 42.74429688 -105.4140625 41.83984375 C-103.50375623 32.2321269 -97.26915624 24.37807822 -89.3984375 18.84765625 C-81.06436746 13.57113203 -73.25453072 10.93813379 -63.375 11.0625 C-62.54718018 11.06789795 -61.71936035 11.0732959 -60.86645508 11.07885742 C-54.23408985 11.24302809 -48.71464144 12.51767928 -42.75 15.5 C-42.09257812 15.80808594 -41.43515625 16.11617187 -40.7578125 16.43359375 C-39.40360172 17.08573673 -38.07224815 17.78527127 -36.75 18.5 C-36.37230469 18.00371094 -35.99460938 17.50742187 -35.60546875 16.99609375 C-26.45504018 5.70270767 -14.4474515 -0.112541 0 0 Z M-32.75 70.5 C-33.99305908 70.79003906 -33.99305908 70.79003906 -35.26123047 71.0859375 C-62.91607605 77.79139678 -90.17191961 91.45356358 -109.75 112.5 C-114.75 117.5 -114.75 117.5 -116.31884766 118.99633789 C-120.62387743 123.16022916 -124.21688909 127.51983693 -127.625 132.4375 C-128.1396582 133.17766357 -128.65431641 133.91782715 -129.18457031 134.68041992 C-147.87923723 161.96523406 -158.22094845 192.77039072 -158.125 225.9375 C-158.12412384 226.68156097 -158.12324768 227.42562195 -158.12234497 228.19223022 C-157.99786262 260.38922402 -148.2793446 291.1037556 -129.75 317.5 C-128.68072266 319.046875 -128.68072266 319.046875 -127.58984375 320.625 C-116.4728558 335.87987197 -102.53968854 349.18338495 -86.75 359.5 C-86.16750488 359.88945801 -85.58500977 360.27891602 -84.98486328 360.68017578 C-69.14792254 371.17231358 -51.26674785 378.3956665 -32.75 382.5 C-32.0379541 382.66226074 -31.3259082 382.82452148 -30.59228516 382.99169922 C3.84386842 390.51223851 39.82726312 384.75225682 71.25 369.5 C71.87181152 369.20399902 72.49362305 368.90799805 73.13427734 368.60302734 C88.71767534 361.10111065 101.84754348 350.44381406 114.25 338.5 C114.89066406 337.91089844 115.53132813 337.32179688 116.19140625 336.71484375 C142.71095298 311.67202352 158.66378541 271.91022916 160.37426758 235.88256836 C161.53160252 195.1823589 150.17734433 155.6465937 123.25 124.5 C122.80011719 123.97712402 122.35023438 123.45424805 121.88671875 122.91552734 C94.97947746 91.94699855 56.55784274 70.62402569 15.25 67.5 C-0.89377377 66.8486553 -16.96123719 66.80625257 -32.75 70.5 Z " fill="#000000" transform="translate(255.75,29.5)"/>
<path d="M0 0 C1.27488281 0.2784375 2.54976562 0.556875 3.86328125 0.84375 C13.4291912 3.14830982 22.17671667 6.72717105 31 11 C31.65033203 11.31485352 32.30066406 11.62970703 32.97070312 11.95410156 C46.16240997 18.44431569 57.31450051 26.89953591 68 37 C68.81082031 37.74636719 69.62164062 38.49273437 70.45703125 39.26171875 C96.17346032 63.76319842 110.91313115 99.67172438 112.28515625 134.90234375 C113.1399415 172.7288725 101.39445969 210.02983954 75.04614258 237.84375 C73.7023607 239.23395127 72.35126952 240.61707556 71 242 C70.21238281 242.84949219 69.42476562 243.69898438 68.61328125 244.57421875 C46.03389588 268.34788566 11.84384936 283.72401008 -20.95214844 285.1262207 C-59.98507438 286.03969557 -95.98646215 277.18923222 -126 251 C-126.96421875 250.16855469 -127.9284375 249.33710938 -128.921875 248.48046875 C-151.0935974 228.99976402 -165.65572223 203.45907636 -173 175 C-173.17789063 174.31776367 -173.35578125 173.63552734 -173.5390625 172.93261719 C-182.24057535 137.52229405 -174.89851472 97.17171098 -156.36816406 66.17871094 C-134.13764567 30.77807816 -100.43848359 8.33280143 -60.015625 -0.984375 C-40.63601607 -5.10698993 -19.25223338 -4.46094197 0 0 Z M21.3125 41.25 C20.06919922 42.43335938 20.06919922 42.43335938 18.80078125 43.640625 C16.80029477 45.77448464 16.80029477 45.77448464 16.9765625 48.03125 C18.30654925 50.58969779 19.97675637 52.2635775 22.0625 54.25 C23.16271484 55.30960938 23.16271484 55.30960938 24.28515625 56.390625 C25.13400391 57.18726563 25.13400391 57.18726563 26 58 C29.45201639 56.52278578 31.64961936 54.56205999 34.25 51.875 C35.30960938 50.78832031 35.30960938 50.78832031 36.390625 49.6796875 C36.92171875 49.12539062 37.4528125 48.57109375 38 48 C33.25436914 42.2584358 33.25436914 42.2584358 28 37 C24.81301289 37 23.5372278 39.08464484 21.3125 41.25 Z M-103.375 64.625 C-111.41890587 73.22499583 -115.67740452 83.56527571 -116.375 95.25 C-115.94119147 99.58808526 -115.37008166 101.23480479 -112 104 C-108.5 104.83333333 -108.5 104.83333333 -105 104 C-100.29494803 100.43942013 -100.32079636 95.47809859 -99.5546875 90.0078125 C-98.78385548 85.82794875 -97.23990473 82.57716129 -95 79 C-94.46375 78.113125 -93.9275 77.22625 -93.375 76.3125 C-88.16108966 71.23579782 -81.4104264 68.36391637 -74.15625 67.9296875 C-66.33205047 68.18482444 -59.80974082 71.19025918 -54.3125 76.6875 C-53.50752033 77.76702572 -52.73755001 78.87332878 -52 80 C-51.40832031 80.90298828 -51.40832031 80.90298828 -50.8046875 81.82421875 C-46.62975197 89.48799901 -46.60970058 99.43099164 -48.6953125 107.78515625 C-51.72607281 115.20924558 -56.51745596 120.85243671 -63.83984375 124.16796875 C-66.88440842 125.34064918 -69.9764157 126.31045806 -73.1171875 127.19140625 C-75.36272024 127.95297184 -75.36272024 127.95297184 -77 131 C-77.44280943 134.46867385 -77.57267811 136.24542908 -75.42578125 139.07421875 C-72.31785093 141.54154508 -69.68112432 142.04685412 -65.8125 142.875 C-55.37617863 145.37589282 -48.28475089 150.29300137 -42 159 C-35.46007946 169.87261789 -33.57803448 182.02380662 -36.26953125 194.43359375 C-39.49323236 205.75964523 -45.99199982 215.53547594 -56.4453125 221.36328125 C-66.35844942 225.86181698 -77.17267046 226.72640004 -87.58984375 223.1015625 C-98.37213954 218.17351159 -105.69913406 209.97032473 -110 199 C-111.36211205 194.43243865 -112.0133894 189.99641286 -112.3125 185.25 C-112.66578786 181.83688003 -113.08284251 180.87817278 -115.125 177.875 C-117.93415286 175.67977587 -117.93415286 175.67977587 -121.625 175.9375 C-125.36929743 177.1162603 -126.0599795 177.72621541 -128 181 C-130.43211098 194.16201234 -123.76835707 208.28556299 -116.5625 218.859375 C-108.1505808 230.38370431 -97.36092056 237.19572214 -83.53125 240.609375 C-69.32841744 242.80117015 -55.89055826 240.00828228 -44 232 C-30.90468957 221.76632759 -21.92139691 208.35450248 -19.52734375 191.71484375 C-18.10239404 176.92484843 -21.33890485 165.10632148 -28 152 C-26.92322998 151.60470093 -26.92322998 151.60470093 -25.82470703 151.20141602 C-22.91686358 149.96464008 -20.45232532 148.49838135 -17.8046875 146.77734375 C-16.84175781 146.15666016 -15.87882812 145.53597656 -14.88671875 144.89648438 C-13.89285156 144.25001953 -12.89898437 143.60355469 -11.875 142.9375 C-9.89514352 141.65199473 -7.91345415 140.36930667 -5.9296875 139.08984375 C-5.05554199 138.52128662 -4.18139648 137.95272949 -3.28076172 137.36694336 C2.36435147 133.98362194 8.6230576 134.47110667 15 135 C21.19947693 136.65985995 25.60673787 140.6405486 29 146 C33.10597533 154.47535286 32.96812377 162.7438212 30.04296875 171.57421875 C27.22922161 178.11855197 23.17441743 182.46864098 17 186 C13.61533293 187.06798784 10.14470969 187.69231544 6.65820312 188.33398438 C3.11523149 189.0905738 1.32064837 189.60405261 -0.99609375 192.46484375 C-2.21152053 195.53415107 -2.13484049 196.91971868 -1 200 C0.58605179 201.93084565 1.76580344 202.88290172 4 204 C14.37812969 204.86484414 24.51973791 200.61023685 32.38671875 193.9921875 C42.26601627 184.61910192 47.65587914 173.02955179 48.3125 159.4375 C48.15907842 148.11839702 43.62920413 137.94783832 35.9296875 129.8125 C26.66545677 121.03246251 17.35209333 118.4461306 4.79296875 118.7421875 C-9.75507523 119.73103498 -24.32951061 131.9125556 -36 140 C-38.79108116 138.67855892 -41.25786389 137.19617639 -43.75 135.375 C-44.36359375 134.92898437 -44.9771875 134.48296875 -45.609375 134.0234375 C-46.06828125 133.68570313 -46.5271875 133.34796875 -47 133 C-46.62488281 132.50371094 -46.24976563 132.00742188 -45.86328125 131.49609375 C-44.78743439 130.06795447 -43.7175235 128.63533169 -42.65234375 127.19921875 C-41.66946887 125.89104249 -40.66795096 124.5960543 -39.62890625 123.33203125 C-31.53960675 113.12590571 -30.69380657 100.49922152 -32 88 C-34.15550526 76.15819299 -41.05253804 66.37485341 -50.7890625 59.4296875 C-68.07597424 48.25122514 -88.29726935 50.5433957 -103.375 64.625 Z M-7 69 C-8.44430855 71.88861709 -8.37688506 73.79647701 -8 77 C-1.30634542 85.63697366 10.35042921 91.28701896 21 93 C34.94782758 94.17031291 48.03605571 90.93840204 59 82 C62.32573059 78.50879564 62.32573059 78.50879564 63.0625 73.9375 C61.7267255 70.24447637 60.40130653 68.93256053 57 67 C53.14588462 67.3560528 50.86588788 68.57206956 47.8125 70.875 C39.94630149 76.2838241 31.48517181 78.17902275 22 77 C15.2189229 75.36031332 10.1108207 72.60967588 4.70703125 68.2734375 C0.2002113 64.91137045 -2.70548333 65.77911249 -7 69 Z " fill="#000000" transform="translate(289,115)"/>
<path d="M0 0 C6.27 0 12.54 0 19 0 C19 5.61 19 11.22 19 17 C24.94 17 30.88 17 37 17 C37 23.27 37 29.54 37 36 C31.06 36 25.12 36 19 36 C19 41.94 19 47.88 19 54 C12.73 54 6.46 54 0 54 C0 48.06 0 42.12 0 36 C-5.61 36 -11.22 36 -17 36 C-17 29.73 -17 23.46 -17 17 C-11.39 17 -5.78 17 0 17 C0 11.39 0 5.78 0 0 Z M1 18 C1 23.61 1 29.22 1 35 C6.61 35 12.22 35 18 35 C18 29.39 18 23.78 18 18 C12.39 18 6.78 18 1 18 Z " fill="#000000" transform="translate(39,22)"/>
<path d="M0 0 C6.27 0 12.54 0 19 0 C19 5.61 19 11.22 19 17 C24.28 17 29.56 17 35 17 C35 23.27 35 29.54 35 36 C29.72 36 24.44 36 19 36 C19 41.28 19 46.56 19 52 C12.73 52 6.46 52 0 52 C0 46.72 0 41.44 0 36 C-5.61 36 -11.22 36 -17 36 C-17 29.73 -17 23.46 -17 17 C-11.39 17 -5.78 17 0 17 C0 11.39 0 5.78 0 0 Z M2 19 C2 23.95 2 28.9 2 34 C6.95 34 11.9 34 17 34 C17 29.05 17 24.1 17 19 C12.05 19 7.1 19 2 19 Z " fill="#000000" transform="translate(455,438)"/>
</svg>
